<?xml version="1.0" encoding="UTF-8"?>
<!DOCTYPE svg PUBLIC "-//W3C//DTD SVG 1.1//EN" "http://www.w3.org/Graphics/SVG/1.1/DTD/svg11.dtd">
<svg xmlns="http://www.w3.org/2000/svg" version="1.1" width="1109px" height="1257px" style="shape-rendering:geometricPrecision; text-rendering:geometricPrecision; image-rendering:optimizeQuality; fill-rule:evenodd; clip-rule:evenodd" xmlns:xlink="http://www.w3.org/1999/xlink">
<g><path style="opacity:0.997" fill="#9900cc" d="M 1108.5,404.5 C 1108.5,411.167 1108.5,417.833 1108.5,424.5C 1100.36,557.615 1047.02,668.781 948.5,758C 895.878,804.33 835.878,838.33 768.5,860C 691.216,884.524 612.216,900.857 531.5,909C 496.619,912.309 461.786,915.476 427,918.5C 424.076,1031.2 420.909,1143.86 417.5,1256.5C 331.833,1256.5 246.167,1256.5 160.5,1256.5C 159.494,1167.5 158.661,1078.5 158,989.5C 190.333,910.833 222.667,832.167 255,753.5C 279.337,743.79 304.504,736.956 330.5,733C 390.792,724.054 451.125,715.387 511.5,707C 565.804,699.073 619.471,688.073 672.5,674C 710.247,664.454 745.58,649.454 778.5,629C 858.13,571.846 892.297,494.346 881,396.5C 867.072,317.407 824.572,259.573 753.5,223C 704.232,201.551 653.232,196.217 600.5,207C 545.366,218.409 495.033,240.409 449.5,273C 405.956,309.21 377.456,355.043 364,410.5C 354.257,452.599 349.257,495.265 349,538.5C 348.5,577.165 348.333,615.832 348.5,654.5C 232.167,654.5 115.833,654.5 -0.5,654.5C -0.5,639.167 -0.5,623.833 -0.5,608.5C 0.559188,505.334 1.22585,402.001 1.5,298.5C 55.6375,300.632 109.638,298.799 163.5,293C 209.014,288.175 249.681,271.841 285.5,244C 318.319,212.89 340.819,175.39 353,131.5C 361.38,102.265 367.714,72.5986 372,42.5C 377.055,35.5509 383.555,30.3842 391.5,27C 407.322,20.393 423.656,15.393 440.5,12C 560.596,-8.60226 679.262,-2.26893 796.5,31C 865.605,50.3766 927.272,83.0433 981.5,129C 1061.81,203.14 1104.15,294.973 1108.5,404.5 Z"/></g>
</svg>
